<?xml version="1.0" standalone="no"?><!DOCTYPE svg PUBLIC "-//W3C//DTD SVG 1.1//EN" "http://www.w3.org/Graphics/SVG/1.1/DTD/svg11.dtd"><svg t="1768839675322" class="icon" viewBox="0 0 1024 1024" version="1.1" xmlns="http://www.w3.org/2000/svg" p-id="17114" xmlns:xlink="http://www.w3.org/1999/xlink" width="32" height="32"><path d="M99.758 815.702C37.06 730.738 0 625.696 0 512c0-141.384 57.308-269.384 149.962-362.038 2.07-2.07 6.018 5.052 8.124 3.018a514.464 514.464 0 0 1 17.442-16.096c2.096-1.848 2.346-12.852 4.474-14.664a513.688 513.688 0 0 1 71-50.792c1.644-0.976 4.474 2.576 6.128 1.618a513.734 513.734 0 0 1 19.382-10.662c1.884-0.984 2.592-6.474 4.49-7.434C350.4 19.804 428.888 0 512 0c18.264 0 36.306 0.956 54.076 2.822 7.55 0.792-137.41 314.65-137.41 517.178 0 88.374 23.516 199.996 47.598 295.702z" fill="#0956C6" p-id="17115"></path><path d="M525.57 1023.824c-4.51 0.116-9.032 0.176-13.57 0.176-170.208 0-321.02-83.056-414.114-210.852h377.736c29.27 116.722 59.676 210.422 49.948 210.676z" fill="#495959" p-id="17116"></path><path d="M358.18 749.394c-14.142-14.142-14.142-37.072 0-51.214 14.142-14.142 37.072-14.142 51.214 0 14.142 14.142 14.142 37.072 0 51.214-14.142 14.142-37.072 14.142-51.214 0z m131.214-640c14.142-14.142 14.142-37.072 0-51.214-14.142-14.142-37.072-14.142-51.214 0-14.142 14.142-14.142 37.072 0 51.214 14.142 14.142 37.072 14.142 51.214 0z" fill="#1ED688" p-id="17117"></path><path d="M519.224 885.49l-20.23 48.366a9.998 9.998 0 0 1-13.084 5.366l-48.366-20.23a9.998 9.998 0 0 1-5.366-13.084l20.23-48.366a10 10 0 0 1 13.084-5.366l48.366 20.23a10 10 0 0 1 5.366 13.084z" fill="#F44545" p-id="17118"></path><path d="M772.826 952.676c-72.75 43.152-157.102 68.802-247.256 71.148L268 440l91.106-120L380 160l186.076-157.178c85.15 8.938 164.082 38.748 231.592 84.218 13.916 9.372 21.87 25.378 20.78 42.12L807.322 300l-280 200 253.39 421.154c6.544 10.878 3.032 25.046-7.886 31.522z" fill="#9BB9C3" p-id="17119"></path><path d="M500 500l-234-60.518L380 160l400 140z" fill="#87A0AF" p-id="17120"></path><path d="M1024 512c0 187.658-100.958 351.736-251.522 440.882L500 500l280-200 14.026-215.39C932.596 176.234 1024 333.442 1024 512z" fill="#B4D2D7" p-id="17121"></path><path d="M281 54.95V720h-30V71.428a509.854 509.854 0 0 1 30-16.478zM150 149.922v415.208a14.868 14.868 0 0 0 14.868 14.868h0.264A14.868 14.868 0 0 0 180 565.13V122.218a515.76 515.76 0 0 0-30 27.704z" fill="#E1EBF0" p-id="17122"></path><path d="M266 705c-24.814 0-45 20.188-45 45v40c0 24.812 20.186 45 45 45s45-20.188 45-45v-40c0-24.812-20.186-45-45-45z m15 85c0 8.272-6.728 15-15 15s-15-6.728-15-15v-40c0-8.272 6.728-15 15-15s15 6.728 15 15z" fill="#FFC14F" p-id="17123"></path><path d="M293 680v40c0 11.046-8.954 20-20 20h-14c-11.046 0-20-8.954-20-20v-40c0-11.046 8.954-20 20-20h14c11.046 0 20 8.954 20 20z" fill="#FFA90B" p-id="17124"></path><path d="M734.142 548.284l-37.072 37.072a10 10 0 0 1-14.142 0l-37.072-37.072a10 10 0 0 1 0-14.142l37.072-37.07a10 10 0 0 1 14.142 0l37.072 37.07a10 10 0 0 1 0 14.142z" fill="#1ED688" p-id="17125"></path><path d="M605.858 951.214l-37.072-37.072a10 10 0 0 1 0-14.142l37.072-37.072a10 10 0 0 1 14.142 0L657.072 900a10 10 0 0 1 0 14.142L620 951.214a10.002 10.002 0 0 1-14.142 0z" fill="#E1EBF0" p-id="17126"></path><path d="M911.214 434.142l-37.072 37.07a10 10 0 0 1-14.142 0l-37.072-37.07a10 10 0 0 1 0-14.142L860 382.928a10 10 0 0 1 14.142 0L911.214 420a10.002 10.002 0 0 1 0 14.142zM500 674.142a10 10 0 0 0-14.142 0l-24.394 24.394a10 10 0 0 0 0 14.142l24.394 24.394a10 10 0 0 0 14.142 0l24.394-24.394a10 10 0 0 0 0-14.142z m112.678-611.214a10 10 0 0 0-14.142 0l-24.394 24.394a10 10 0 0 0 0 14.142l24.394 24.394a10 10 0 0 0 14.142 0l24.394-24.394a10 10 0 0 0 0-14.142z" fill="#FFA90B" p-id="17127"></path><path d="M477.072 334.142L440 371.212a10 10 0 0 1-14.142 0l-37.072-37.07a10 10 0 0 1 0-14.142l37.072-37.072a10 10 0 0 1 14.142 0L477.072 320a10.002 10.002 0 0 1 0 14.142z" fill="#F44545" p-id="17128"></path><path d="M702.714 170.606c14.142 14.142 14.142 37.072 0 51.214-14.142 14.142-37.072 14.142-51.214 0s-14.142-37.07 0-51.214c14.142-14.142 37.072-14.142 51.214 0z m122.892 532.574c-14.142-14.142-37.07-14.142-51.212 0s-14.142 37.07 0 51.214c14.142 14.142 37.07 14.142 51.212 0 14.142-14.144 14.142-37.072 0-51.214z" fill="#2B3894" p-id="17129"></path></svg>