<?xml version="1.0" standalone="no"?><!DOCTYPE svg PUBLIC "-//W3C//DTD SVG 1.1//EN" "http://www.w3.org/Graphics/SVG/1.1/DTD/svg11.dtd"><svg t="1783012071940" class="icon" viewBox="0 0 1024 1024" version="1.1" xmlns="http://www.w3.org/2000/svg" p-id="19031" xmlns:xlink="http://www.w3.org/1999/xlink" width="20" height="20"><path d="M513.498537 509.002927m-489.521952 0a489.521951 489.521951 0 1 0 979.043903 0 489.521951 489.521951 0 1 0-979.043903 0Z" fill="#F98A48" opacity=".1" p-id="19032"></path><path d="M761.256585 202.801951H265.740488c-36.46439 0-67.434146 30.969756-67.434147 68.433171v50.950244h628.885854V271.235122c1.498537-37.463415-28.472195-68.433171-65.93561-68.433171zM199.305366 376.632195v370.138537c0 37.463415 29.970732 68.433171 67.434146 68.43317h494.017561c36.46439 0 67.434146-30.969756 67.434147-68.43317V376.632195H199.305366zM409.6 669.346341c8.99122 8.99122 8.99122 21.978537 0 30.969757-8.99122 8.99122-21.978537 8.99122-29.970732 0L302.204878 619.395122c-8.99122-8.99122-8.99122-21.978537 0-30.969756L379.629268 508.003902c8.99122-8.99122 21.978537-8.99122 29.970732 0 8.99122 8.99122 8.99122 21.978537 0 30.969757L346.661463 604.409756 409.6 669.346341z m156.846829-163.340487l-53.947317 207.797073c-3.496585 11.988293-14.485854 18.981463-26.474146 15.484878-11.988293-4.49561-18.981463-16.483902-15.484878-27.473171L524.487805 493.518049c3.496585-11.988293 14.485854-18.981463 26.474146-15.484878 10.989268 3.496585 17.482927 15.484878 15.484878 27.972683z m176.827317 114.887805l-77.42439 80.920975c-8.99122 8.99122-21.978537 8.99122-29.970732 0-8.99122-8.99122-8.99122-21.978537 0-30.969756l62.938537-65.436098-62.938537-65.436097c-8.99122-8.99122-8.99122-21.978537 0-30.969756 8.99122-8.99122 21.978537-8.99122 29.970732 0l77.42439 80.920975c8.99122 8.99122 8.99122 21.978537 0 30.969757z" fill="#F98A48" p-id="19033"></path></svg>