<?xml version="1.0" standalone="no"?><!DOCTYPE svg PUBLIC "-//W3C//DTD SVG 1.1//EN" "http://www.w3.org/Graphics/SVG/1.1/DTD/svg11.dtd"><svg t="1782836651540" class="icon" viewBox="0 0 1024 1024" version="1.1" xmlns="http://www.w3.org/2000/svg" p-id="54841" xmlns:xlink="http://www.w3.org/1999/xlink" width="20" height="20"><path d="M555.97056 511.22176m-409.6 0a409.6 409.6 0 1 0 819.2 0 409.6 409.6 0 1 0-819.2 0Z" fill="#93EDE7" p-id="54842"></path><path d="M555.97056 101.62176a407.8592 407.8592 0 0 0-189.91104 46.63296 391.4752 391.4752 0 0 0-9.17504 84.43904c0 215.81824 174.91968 390.69696 390.63552 390.69696a388.89472 388.89472 0 0 0 215.22432-64.59392 414.5152 414.5152 0 0 0 2.7648-47.57504c0.06144-226.2016-183.33696-409.6-409.53856-409.6z" fill="#C1F8F4" p-id="54843"></path><path d="M555.97056 920.82176c220.71296 0 400.62976-174.57152 409.23136-393.216L460.45184 288.89088s-222.35136 167.936-313.344 247.808c13.2096 214.34368 191.20128 384.12288 408.86272 384.12288z" fill="#5A915A" p-id="54844"></path><path d="M451.8912 684.97408a495.49312 495.49312 0 0 1 104.07936-10.91584c123.67872 0 233.472 44.70784 302.10048 113.72544a408.02304 408.02304 0 0 0 107.13088-260.096l-504.75008-238.7968s-222.35136 167.936-313.344 247.808a408.08448 408.08448 0 0 0 106.65984 251.0848c48.72192-48.88576 117.92384-85.56544 198.12352-102.8096z" fill="#5A915A" p-id="54845"></path><path d="M555.97056 920.82176a407.552 407.552 0 0 0 217.7024-62.60736c-145.408-7.4752-268.288-76.82048-321.78176-173.24032-80.19968 17.24416-149.504 53.92384-198.06208 102.78912a408.51456 408.51456 0 0 0 302.14144 133.05856z" fill="#93EDE7" p-id="54846"></path><path d="M555.97056 674.05824a495.49312 495.49312 0 0 0-104.07936 10.91584c53.5552 96.41984 176.3328 165.76512 321.78176 173.24032A411.648 411.648 0 0 0 858.112 787.78368c-68.73088-68.93568-178.46272-113.72544-302.14144-113.72544z" fill="#C1F8F4" p-id="54847"></path><path d="M964.75136 536.69888c-0.2048 3.25632-0.43008 6.51264-0.7168 9.74848 0.28672-3.23584 0.57344-6.49216 0.7168-9.74848zM965.20192 527.64672l-0.12288 2.47808c0.04096-0.83968 0.1024-1.7408 0.12288-2.47808zM962.94912 557.34272c0.28672-2.56 0.53248-5.14048 0.77824-7.72096-0.24576 2.58048-0.49152 5.16096-0.77824 7.72096z" fill="#5A915A" p-id="54848"></path><path d="M964.03456 546.44736c0 1.06496-0.2048 2.048-0.3072 3.1744 0.1024-1.04448 0.22528-2.10944 0.3072-3.1744zM962.80576 558.7968c0-0.49152 0-0.96256 0.14336-1.45408l-0.18432 1.47456z" fill="#C1F8F4" p-id="54849"></path><path d="M827.55584 361.96352c0.77824 3.15392 1.47456 6.30784 2.048 9.46176l39.75168-9.80992c-0.67584-3.15392-1.37216-6.30784-2.048-9.46176A281.66144 281.66144 0 0 0 526.336 146.24768l9.80992 39.7312a240.76288 240.76288 0 0 1 291.40992 175.98464z" fill="#FF3C3C" p-id="54850"></path><path d="M536.12544 185.97888l10.97728 44.48256a194.90816 194.90816 0 0 1 235.99104 142.47936c0.77824 3.1744 1.45408 6.32832 2.048 9.48224l44.50304-10.99776c-0.65536-3.15392-1.35168-6.30784-2.048-9.46176a240.76288 240.76288 0 0 0-291.47136-175.98464z" fill="#F9EF63" p-id="54851"></path><path d="M737.28 384.28672c0.77824 3.15392 1.41312 6.32832 2.048 9.50272l45.9776-11.3664c-0.63488-3.15392-1.31072-6.30784-2.048-9.48224a194.90816 194.90816 0 0 0-235.99104-142.47936l11.34592 45.8752A147.6608 147.6608 0 0 1 737.28 384.28672z" fill="#70C6DA" p-id="54852"></path><path d="M697.07776 394.19904c0.77824 3.1744 1.39264 6.3488 1.86368 9.5232l40.26368-9.9328c-0.57344-3.1744-1.20832-6.3488-2.048-9.50272a147.6608 147.6608 0 0 0-178.76992-107.95008l9.91232 40.1408a106.31168 106.31168 0 0 1 128.77824 77.7216z" fill="#6E64C3" p-id="54853"></path><path d="M965.07904 530.10432c-0.1024 2.19136-0.18432 4.4032-0.32768 6.59456 0.14336-2.17088 0.22528-4.4032 0.32768-6.59456z" fill="#C1F8F4" p-id="54854"></path><path d="M923.19744 345.1904a64.38912 64.38912 0 0 0 0.49152-7.74144 63.65184 63.65184 0 0 0-88.86272-58.42944 89.68192 89.68192 0 0 0-146.61632 67.584 60.98944 60.98944 0 0 0 15.91296 119.88992c1.59744 0 3.19488 0 4.77184-0.2048h199.82336c1.55648 0.12288 3.13344 0.2048 4.73088 0.2048a61.00992 61.00992 0 0 0 9.74848-121.22112z" fill="#FFFFFF" p-id="54855"></path><path d="M964.03456 546.44736c0.28672-3.23584 0.512-6.49216 0.7168-9.74848 0.14336-2.19136 0.22528-4.4032 0.32768-6.59456l0.12288-2.47808-504.75008-238.73536s-35.79904 27.05408-84.52096 64.57344A390.81984 390.81984 0 0 0 962.7648 558.81728l0.18432-1.47456c0.28672-2.56 0.53248-5.14048 0.77824-7.72096 0.1024-1.06496 0.22528-2.10944 0.3072-3.1744z" fill="#8BC852" p-id="54856"></path><path d="M360.1408 477.40928a240.76288 240.76288 0 0 1 175.98464-291.4304L526.336 146.24768A281.66144 281.66144 0 0 0 320.4096 487.2192c0.77824 3.15392 1.6384 6.28736 2.51904 9.37984l39.75168-9.80992c-0.90112-3.11296-1.76128-6.22592-2.53952-9.37984z" fill="#DC1428" p-id="54857"></path><path d="M404.62336 466.432a194.88768 194.88768 0 0 1 142.47936-235.97056l-10.97728-44.48256a240.76288 240.76288 0 0 0-175.98464 291.4304c0.77824 3.15392 1.6384 6.26688 2.53952 9.37984l44.50304-10.99776c-0.9216-3.09248-1.67936-6.20544-2.56-9.35936z" fill="#F4DD45" p-id="54858"></path><path d="M404.62336 466.432c0.77824 3.15392 1.6384 6.26688 2.56 9.35936l45.9776-11.3664c-0.96256-3.05152-1.88416-6.144-2.6624-9.3184a147.6608 147.6608 0 0 1 107.95008-178.76992l-11.34592-45.8752a194.88768 194.88768 0 0 0-142.47936 235.97056z" fill="#00AFF4" p-id="54859"></path><path d="M490.63936 445.17376a106.2912 106.2912 0 0 1 77.7216-128.69632l-9.91232-40.1408A147.6608 147.6608 0 0 0 450.56 455.10656c0.77824 3.15392 1.69984 6.26688 2.6624 9.3184l40.2432-9.9328c-1.10592-3.03104-1.9456-6.12352-2.82624-9.3184z" fill="#5046AF" p-id="54860"></path><path d="M407.28576 549.62176a68.93568 68.93568 0 0 1-17.96096-135.49568 100.82304 100.82304 0 0 1 20.76672-59.392 101.39648 101.39648 0 0 0-143.83104 90.112 68.93568 68.93568 0 0 0 17.98144 135.49568c1.82272 0 3.60448-0.1024 5.38624-0.24576h225.83296c1.78176 0.14336 3.56352 0.24576 5.36576 0.24576a68.89472 68.89472 0 0 0 57.344-30.72h-165.4784c-1.78176-0.08192-3.584 0-5.40672 0z" fill="#DAFFFB" p-id="54861"></path><path d="M531.82464 443.1872a72.64256 72.64256 0 0 0 0.55296-8.74496 71.92576 71.92576 0 0 0-100.352-66.048 101.15072 101.15072 0 0 0-21.87264-13.74208 100.82304 100.82304 0 0 0-20.76672 59.392 68.93568 68.93568 0 0 0 17.96096 135.49568c1.82272 0 3.62496 0 5.40672-0.22528h165.53984a68.93568 68.93568 0 0 0-46.40768-106.20928z" fill="#FFFFFF" p-id="54862"></path></svg>