<?xml version="1.0" standalone="no"?><!DOCTYPE svg PUBLIC "-//W3C//DTD SVG 1.1//EN" "http://www.w3.org/Graphics/SVG/1.1/DTD/svg11.dtd"><svg t="1782799266693" class="icon" viewBox="0 0 1024 1024" version="1.1" xmlns="http://www.w3.org/2000/svg" p-id="11001" xmlns:xlink="http://www.w3.org/1999/xlink" width="20" height="20"><path d="M0 512a512 512 0 1 0 1024 0 512 512 0 1 0-1024 0Z" fill="#8A9099" p-id="11002"></path><path d="M305.120759 305.110098a292.571429 292.571429 0 1 0 413.758482 413.758483 292.571429 292.571429 0 1 0-413.758482-413.758483Z" fill="#8A9099" p-id="11003"></path><path d="M305.152 718.848l413.696-413.696q10.24 10.093714 19.309714 21.211429 9.142857 11.117714 17.115429 23.113142 7.972571 11.922286 14.774857 24.576 6.729143 12.726857 12.214857 25.965715 5.558857 13.312 9.728 27.062857 4.169143 13.750857 6.948572 27.794286 2.779429 14.116571 4.242285 28.452571Q804.571429 497.590857 804.571429 512q0 14.336-1.462858 28.672-1.389714 14.336-4.169142 28.379429-2.779429 14.116571-6.948572 27.867428t-9.728 27.062857q-5.485714 13.238857-12.214857 25.965715-6.802286 12.653714-14.774857 24.576-8.045714 11.995429-17.115429 23.113142-9.142857 11.044571-19.309714 21.211429-10.166857 10.24-21.211429 19.309714-11.117714 9.142857-23.113142 17.115429-11.922286 7.972571-24.576 14.774857-12.726857 6.729143-25.965715 12.214857-13.312 5.558857-27.062857 9.728-13.750857 4.169143-27.794286 6.948572-14.116571 2.779429-28.452571 4.242285Q526.336 804.571429 512 804.571429q-14.409143 0-28.672-1.462858-14.336-1.389714-28.379429-4.169142-14.116571-2.779429-27.867428-6.948572t-27.062857-9.728q-13.238857-5.485714-25.965715-12.214857-12.653714-6.802286-24.576-14.774857-11.995429-8.045714-23.113142-17.115429-11.044571-9.142857-21.211429-19.309714z" fill="#FFFFFF" p-id="11004"></path></svg>