<?xml version="1.0" standalone="no"?><!DOCTYPE svg PUBLIC "-//W3C//DTD SVG 1.1//EN" "http://www.w3.org/Graphics/SVG/1.1/DTD/svg11.dtd"><svg t="1768839572316" class="icon" viewBox="0 0 1024 1024" version="1.1" xmlns="http://www.w3.org/2000/svg" p-id="12149" xmlns:xlink="http://www.w3.org/1999/xlink" width="32" height="32"><path d="M512.010445 0.000585A512.281535 512.281535 0 0 0 1.016196 479.339287c-19.250785 305.964609 237.679908 562.895302 543.644517 543.644517A511.98897 511.98897 0 0 0 512.010445 0.000585z" fill="#783FC7" p-id="12150"></path><path d="M214.179147 519.303684a287.298954 287.298954 0 0 0 56.055478 173.31558 287.41598 287.41598 0 0 0 143.532451 107.956532 18.022012 18.022012 0 0 0 5.851302 1.17026 6.904537 6.904537 0 0 0 4.095912-1.17026 8.425876 8.425876 0 0 0 2.340521-1.755391A7.723719 7.723719 0 0 0 427.166559 795.777728v-61.146112a137.271557 137.271557 0 0 1-38.560084-0.58513 67.231466 67.231466 0 0 1-26.213835-8.133311 60.502468 60.502468 0 0 1-16.383647-13.457995 53.305366 53.305366 0 0 1-10.473832-15.154874 135.633192 135.633192 0 0 1-5.266172-13.399483 50.555254 50.555254 0 0 0-3.510782-8.776953 52.135105 52.135105 0 0 0-15.154873-15.740004q-10.532345-7.665206-15.798517-12.287735c-3.452268-2.691599-3.86186-5.441711-1.111747-8.133311q29.256513-15.213387 65.944179 38.501571 19.835916 29.78313 68.869831 17.553907a86.306712 86.306712 0 0 1 23.40521-40.959117q-67.055927-11.702605-99.472143-49.619046a132.824567 132.824567 0 0 1-32.708781-92.216527 128.728655 128.728655 0 0 1 32.123651-87.769538 115.797277 115.797277 0 0 1 2.925651-79.928793 88.120616 88.120616 0 0 1 38.50157 5.851303 181.858482 181.858482 0 0 1 29.256513 13.457996q8.13331 5.851303 14.569743 11.058961a284.13925 284.13925 0 0 1 75.306264-9.303571 287.825571 287.825571 0 0 1 75.24775 9.303571c5.090633-3.86186 10.707884-7.782232 16.968777-11.702605a167.990895 167.990895 0 0 1 28.554357-12.287735 80.162844 80.162844 0 0 1 35.634432-5.207659 118.196311 118.196311 0 0 1 3.510781 78.173402 130.425533 130.425533 0 0 1 32.650268 88.705746 135.691705 135.691705 0 0 1-33.059859 91.923962q-33.293911 37.91644-100.993481 50.204176a80.396897 80.396897 0 0 1 25.687218 60.678007v76.476524c1.170261 6.96305 2.340521 9.888701 3.510781 8.718441s3.276729-0.58513 6.436433 1.75539a293.852412 293.852412 0 0 0 146.282563-107.956531 289.815014 289.815014 0 0 0 56.640608-175.070971 296.309959 296.309959 0 0 0-23.40521-116.148355 303.624088 303.624088 0 0 0-63.662171-94.557049 311.113755 311.113755 0 0 0-95.083666-63.603658 296.485499 296.485499 0 0 0-116.148355-23.405211 302.687879 302.687879 0 0 0-210.646891 86.365226A298.006837 298.006837 0 0 0 238.110974 403.155329a289.697988 289.697988 0 0 0-23.931827 116.148355z" fill="#FFFFFF" p-id="12151"></path></svg>