<?xml version="1.0" standalone="no"?><!DOCTYPE svg PUBLIC "-//W3C//DTD SVG 1.1//EN" "http://www.w3.org/Graphics/SVG/1.1/DTD/svg11.dtd"><svg t="1782834566700" class="icon" viewBox="0 0 1024 1024" version="1.1" xmlns="http://www.w3.org/2000/svg" p-id="49050" xmlns:xlink="http://www.w3.org/1999/xlink" width="20" height="20"><path d="M960 512c0 231.2-175.136 421.504-400 445.44-15.776 1.696-31.776-29.44-48-29.44-247.424 0-352-168.576-352-416S264.576 128 512 128c14.656 0 29.152-63.296 43.456-61.92C782.496 87.936 960 279.232 960 512z" fill="#8D65C5" p-id="49051"></path><path d="M720 448a80 80 0 1 0 0-160 80 80 0 0 0 0 160z m76.224 410.336a449.28 449.28 0 0 0 130.336-176.224 112 112 0 0 0-130.368 176.224z" fill="#6B438B" p-id="49052"></path><path d="M556.8 66.24C542.08 64.704 527.104 64 512 64 264.576 64 64 264.576 64 512s200.576 448 448 448c15.104 0 30.08-0.736 44.8-2.24C685.696 852.16 768 691.712 768 512c0-24.096-1.472-47.808-4.352-71.136a96.032 96.032 0 0 1-38.976-148.416A577.6 577.6 0 0 0 556.8 66.24z" fill="#FCD53F" p-id="49053"></path><path d="M544 176a48 48 0 1 1-96 0 48 48 0 0 1 96 0z m64 512a80 80 0 1 1-160 0 80 80 0 0 1 160 0z m-192-288a112 112 0 1 0-224 0 112 112 0 0 0 224 0z m306.848-111.936a80 80 0 1 0 35.2 150.336 96 96 0 0 1-33.376-145.92 680.288 680.288 0 0 0-1.824-4.416zM152 778.72a449.728 449.728 0 0 0 174.048 140.992 112 112 0 0 0-174.048-140.992z" fill="#F9C23C" p-id="49054"></path></svg>