<?xml version="1.0" standalone="no"?><!DOCTYPE svg PUBLIC "-//W3C//DTD SVG 1.1//EN" "http://www.w3.org/Graphics/SVG/1.1/DTD/svg11.dtd"><svg t="1782788890543" class="icon" viewBox="0 0 1024 1024" version="1.1" xmlns="http://www.w3.org/2000/svg" p-id="21578" width="20" height="20" xmlns:xlink="http://www.w3.org/1999/xlink"><path d="M213.077333 42.666667a42.666667 42.666667 0 0 1 42.325334 37.674666L255.701333 85.333333l-0.042666 85.333334h384.853333A213.162667 213.162667 0 0 1 853.333333 374.741333l0.170667 9.258667v384h85.205333a42.666667 42.666667 0 0 1 4.992 85.034667L938.666667 853.333333h-85.205334v85.333334a42.666667 42.666667 0 0 1-84.906666 4.992L768.298667 938.666667v-85.333334H383.488A213.162667 213.162667 0 0 1 170.666667 649.258667L170.496 640l-0.042667-384H85.290667a42.666667 42.666667 0 0 1-4.992-85.034667L85.333333 170.666667h85.162667V85.333333a42.666667 42.666667 0 0 1 42.624-42.666666z m42.581334 213.333333v384a127.914667 127.914667 0 0 0 120.32 127.786667l7.509333 0.213333h384.810667V384a127.914667 127.914667 0 0 0-120.277334-127.786667L640.512 256h-384.853333z" fill="#333333" p-id="21579"></path><path d="M341.333333 384a42.666667 42.666667 0 1 1 85.333334 0 42.666667 42.666667 0 0 1-85.333334 0z m2.176 263.509333a21.376 21.376 0 0 1 1.792-21.845333l106.794667-148.48a20.053333 20.053333 0 0 1 31.530667-1.536l9.173333 10.538667a20.096 20.096 0 0 0 30.805333-0.64l26.026667-32.298667a20.096 20.096 0 0 1 33.28 2.816l96.981333 171.52a21.376 21.376 0 0 1 0.042667 20.906667 20.266667 20.266667 0 0 1-17.621333 10.496H361.685333a20.309333 20.309333 0 0 1-18.176-11.477334z" fill="#1AB370" p-id="21580"></path></svg>