<?xml version="1.0" standalone="no"?><!DOCTYPE svg PUBLIC "-//W3C//DTD SVG 1.1//EN" "http://www.w3.org/Graphics/SVG/1.1/DTD/svg11.dtd"><svg t="1768817749268" class="icon" viewBox="0 0 1024 1024" version="1.1" xmlns="http://www.w3.org/2000/svg" p-id="7038" xmlns:xlink="http://www.w3.org/1999/xlink" width="32" height="32"><path d="M427.306667 884.181333L347.989333 927.573333a87.424 87.424 0 0 1-128.768-89.898666l18.218667-110.677334a172.629333 172.629333 0 0 0-47.488-149.162666l-79.658667-80.938667a86.613333 86.613333 0 0 1 49.493334-146.432l98.986666-14.976A174.933333 174.933333 0 0 0 390.741333 237.653333l51.285334-108.330666a77.525333 77.525333 0 0 1 139.861333 0l51.285333 108.330666a174.933333 174.933333 0 0 0 132.053334 97.834667l98.986666 14.976a86.613333 86.613333 0 0 1 49.450667 146.432l-79.658667 80.938667a172.629333 172.629333 0 0 0-47.488 149.162666l18.218667 110.677334a87.424 87.424 0 0 1-128.768 89.898666l-79.317333-43.434666a176.426667 176.426667 0 0 0-169.386667 0z" fill="#FFB531" p-id="7039"></path><path d="M320.426667 572.501333a21.248 21.248 0 0 1-15.232-6.357333L257.792 517.973333a72.832 72.832 0 0 1 41.472-123.136l58.88-8.917333a82.645333 82.645333 0 0 0 62.421333-46.250667l30.506667-64.426666a67.498667 67.498667 0 0 1 121.813333 0l30.549334 64.426666a82.645333 82.645333 0 0 0 62.421333 46.250667 21.333333 21.333333 0 1 1-6.4 42.197333 125.226667 125.226667 0 0 1-94.634667-70.186666l-30.506666-64.426667a25.514667 25.514667 0 0 0-44.629334 0l-30.506666 64.426667a125.226667 125.226667 0 0 1-94.634667 70.186666l-58.88 8.917334a30.037333 30.037333 0 0 0-24.576 20.48 29.568 29.568 0 0 0 7.125333 30.549333l47.402667 48.170667a21.333333 21.333333 0 0 1-15.189333 36.266666z" fill="#030835" p-id="7040"></path></svg>