<?xml version="1.0" standalone="no"?><!DOCTYPE svg PUBLIC "-//W3C//DTD SVG 1.1//EN" "http://www.w3.org/Graphics/SVG/1.1/DTD/svg11.dtd"><svg t="1782834394133" class="icon" viewBox="0 0 1024 1024" version="1.1" xmlns="http://www.w3.org/2000/svg" p-id="38866" xmlns:xlink="http://www.w3.org/1999/xlink" width="20" height="20"><path d="M511.99976 511.99976m-511.99976 0a511.99976 511.99976 0 1 0 1023.99952 0 511.99976 511.99976 0 1 0-1023.99952 0Z" fill="#91D2F2" p-id="38867"></path><path d="M144.623932 868.455593C237.679889 964.327548 367.831828 1023.99952 511.99976 1023.99952c269.983873 0 490.99977-209.007902 510.455761-474.031778C956.991551 535.703749 887.559584 527.999753 815.623618 527.999753c-309.535855 0-572.895731 142.055933-670.999686 340.45584z" fill="#198058" p-id="38868"></path><path d="M979.623541 575.99973c-351.319835 0-647.791696 155.655927-741.279653 368.639827A509.359761 509.359761 0 0 0 511.99976 1023.99952c260.839878 0 475.967777-195.111909 507.799762-447.31979a1194.34344 1194.34344 0 0 0-40.175981-0.68z" fill="#1E9969" p-id="38869"></path><path d="M69.711967 769.831639C158.503926 921.815568 323.271848 1023.99952 511.99976 1023.99952a509.455761 509.455761 0 0 0 269.631874-76.783964C657.111692 828.375612 464.271782 751.999648 247.623884 751.999648c-61.575971 0-121.183943 6.271997-177.911917 17.831991z" fill="#6AA33A" p-id="38870"></path><path d="M487.887771 1023.39152c-86.543959-122.151943-236.911889-214.679899-417.591804-252.543881 85.11996 144.919932 239.415888 244.279885 417.591804 252.543881z" fill="#95E652" p-id="38871"></path><path d="M394.159815 167.999921l-45.255979 45.255979L303.647858 167.999921l45.255978-45.255979zM394.159815 503.999764l-45.255979 45.255979L303.655858 503.999764l45.247978-45.247979z" fill="#FFF8E6" p-id="38872"></path><path d="M180.879915 290.719864l45.247979 45.247979-45.255979 45.255978-45.255979-45.255978zM516.903758 290.719864l45.247978 45.247979-45.247978 45.247978-45.247979-45.247978z" fill="#FFF8E6" p-id="38873"></path><path d="M198.087907 185.207913h63.99997v63.99997h-63.99997zM435.671796 422.791802h63.99997v63.99997h-63.99997z" fill="#FFF8E6" p-id="38874"></path><path d="M198.087907 422.791802h63.99997v63.99997h-63.99997zM435.671796 185.207913h63.99997v63.99997h-63.99997z" fill="#FFF8E6" p-id="38875"></path><path d="M348.879836 335.999843m-183.999913 0a183.999914 183.999914 0 1 0 367.999827 0 183.999914 183.999914 0 1 0-367.999827 0Z" fill="#FFEAB3" p-id="38876"></path><path d="M348.879836 335.999843m-159.999925 0a159.999925 159.999925 0 1 0 319.99985 0 159.999925 159.999925 0 1 0-319.99985 0Z" fill="#FFDC80" p-id="38877"></path></svg>