<?xml version="1.0" standalone="no"?><!DOCTYPE svg PUBLIC "-//W3C//DTD SVG 1.1//EN" "http://www.w3.org/Graphics/SVG/1.1/DTD/svg11.dtd"><svg t="1782722067677" class="icon" viewBox="0 0 1024 1024" version="1.1" xmlns="http://www.w3.org/2000/svg" p-id="1602" xmlns:xlink="http://www.w3.org/1999/xlink" width="20" height="20"><path d="M691.712 380.970667l-61.312-34.645334a23.978667 23.978667 0 0 0-23.466667 0l-61.354666 34.602667a23.893333 23.893333 0 0 1-22.186667 0.682667 20.906667 20.906667 0 0 1-8.32-7.125334 17.664 17.664 0 0 1-3.072-9.813333V104.661333c0-5.12 2.304-10.026667 6.4-13.653333A23.381333 23.381333 0 0 1 533.845333 85.333333h169.642667a24.32 24.32 0 0 1 8.362667 1.450667 22.186667 22.186667 0 0 1 7.082666 4.224 19.413333 19.413333 0 0 1 4.736 6.272 17.493333 17.493333 0 0 1 1.664 7.381333v260.010667a17.706667 17.706667 0 0 1-3.072 9.813333 20.906667 20.906667 0 0 1-8.277333 7.125334 24.192 24.192 0 0 1-22.272-0.64z" fill="#1B7AFE" p-id="1603"></path><path d="M234.666667 817.792v-128a21.333333 21.333333 0 1 1 42.666666 0v128c0 7.68 6.357333 14.208 14.464 14.208H774.826667c8.106667 0 14.464-6.485333 14.464-14.208V206.208a14.336 14.336 0 0 0-14.464-14.208H291.84a14.336 14.336 0 0 0-14.464 14.208v142.250667a21.333333 21.333333 0 0 1-42.666667 0V206.208c0-31.573333 25.728-56.874667 57.130667-56.874667H774.826667c31.402667 0 57.130667 25.344 57.130666 56.874667v611.584c0 31.573333-25.728 56.874667-57.130666 56.874667H291.84A57.002667 57.002667 0 0 1 234.666667 817.792z" fill="#252525" p-id="1604"></path><path d="M298.666667 405.333333a21.333333 21.333333 0 0 1 0 42.666667H213.333333a21.333333 21.333333 0 0 1 0-42.666667h85.333334zM298.666667 490.666667a21.333333 21.333333 0 0 1 0 42.666666H213.333333a21.333333 21.333333 0 0 1 0-42.666666h85.333334zM298.666667 576a21.333333 21.333333 0 0 1 0 42.666667H213.333333a21.333333 21.333333 0 0 1 0-42.666667h85.333334z" fill="#252525" p-id="1605"></path><path d="M554.666667 704a21.333333 21.333333 0 0 1 0 42.666667H384a21.333333 21.333333 0 0 1 0-42.666667h170.666667z" fill="#1B7AFE" p-id="1606"></path><path d="M682.666667 576l4.266666 0.426667a21.333333 21.333333 0 0 1 0 41.813333l-4.266666 0.426667H384a21.333333 21.333333 0 0 1 0-42.666667h298.666667z" fill="#252525" p-id="1607"></path></svg>