<?xml version="1.0" standalone="no"?><!DOCTYPE svg PUBLIC "-//W3C//DTD SVG 1.1//EN" "http://www.w3.org/Graphics/SVG/1.1/DTD/svg11.dtd"><svg t="1782722121476" class="icon" viewBox="0 0 1024 1024" version="1.1" xmlns="http://www.w3.org/2000/svg" p-id="2122" xmlns:xlink="http://www.w3.org/1999/xlink" width="20" height="20"><path d="M597.333333 320a149.333333 149.333333 0 1 1-298.666666 0 149.333333 149.333333 0 0 1 298.666666 0z" fill="#1B7AFE" p-id="2123"></path><path d="M576 320a128 128 0 1 0-256 0 128 128 0 0 0 256 0z m42.666667 0a170.666667 170.666667 0 1 1-341.333334 0 170.666667 170.666667 0 0 1 341.333334 0z" fill="#1B7AFE" p-id="2124"></path><path d="M661.333333 320a213.333333 213.333333 0 1 0-271.530666 205.312l-11.605334 41.045333a256 256 0 1 1 267.264-83.456L629.034667 469.333333l-16.469334-13.568A212.352 212.352 0 0 0 661.333333 320z" fill="#252525" p-id="2125"></path><path d="M490.666667 320c0-15.530667-5.632-25.6-12.842667-32.042667a45.013333 45.013333 0 0 0-29.866667-10.624c-11.434667 0-22.186667 3.84-29.824 10.624-7.210667 6.4-12.8 16.512-12.8 32.042667v341.333333a21.333333 21.333333 0 0 1-40.448 9.557334c-6.784-13.610667-23.168-42.112-37.333333-57.002667-22.186667-14.421333-37.162667-16.810667-46.037333-15.530667-8.149333 1.237333-14.506667 6.058667-19.114667 15.146667-4.821333 9.6-7.082667 23.168-5.333333 37.930667 1.706667 14.634667 7.168 28.672 15.573333 39.253333 28.373333 35.413333 97.450667 118.613333 147.754667 168.917333 24.192 24.192 45.610667 38.826667 61.952 47.317334 16.938667 8.789333 27.306667 10.410667 29.610666 10.410666h213.333334c35.754667 0 56.021333-14.378667 68.053333-31.146666 12.8-17.792 17.28-39.808 17.28-54.186667V554.666667c0-10.922667-3.413333-17.322667-7.381333-21.248a31.274667 31.274667 0 0 0-18.944-8.192c-17.706667-1.962667-34.304 6.4-39.893334 17.664a21.333333 21.333333 0 0 1-40.405333-9.557334c0-17.749333-4.394667-29.098667-9.514667-36.053333a31.829333 31.829333 0 0 0-19.114666-12.458667c-16-3.541333-32 4.181333-37.632 15.36a21.333333 21.333333 0 0 1-39.765334-4.352c-4.693333-18.901333-11.306667-29.653333-17.066666-35.413333a21.333333 21.333333 0 0 0-15.530667-7.082667c-11.178667 0-26.197333 9.344-34.304 25.557334A21.333333 21.333333 0 0 1 490.666667 469.333333h-0.085334V320z m42.666666 98.645333a70.826667 70.826667 0 0 1 32-7.978666c16.469333 0 32.554667 6.357333 45.781334 19.584 6.058667 6.058667 11.264 13.44 15.786666 22.016 17.28-10.112 38.442667-13.354667 57.685334-9.088 16.725333 3.712 32.682667 13.098667 44.245333 28.842666 4.266667 5.845333 7.850667 12.373333 10.666667 19.498667 15.573333-7.68 33.450667-10.496 49.493333-8.746667 15.829333 1.792 32 8.106667 44.373333 20.48 12.757333 12.714667 19.968 30.293333 19.968 51.413334v277.333333c0 21.205333-6.186667 52.48-25.344 79.146667-19.968 27.733333-53.034667 48.853333-102.656 48.853333h-213.333333c-11.946667 0-29.269333-4.821333-49.322667-15.189333-20.608-10.709333-45.482667-28.074667-72.448-55.04-52.053333-52.096-122.410667-136.789333-150.912-172.416a120.746667 120.746667 0 0 1-24.618666-60.928c-2.517333-21.205333 0.213333-43.562667 9.557333-62.122667 9.6-19.072 26.624-34.56 51.114667-38.144 20.608-2.986667 43.306667 2.901333 67.413333 16.938667l10.368 6.485333 1.706667 1.152 1.536 1.493333c2.133333 2.133333 4.181333 4.394667 6.229333 6.826667V320c0-27.136 10.410667-49.066667 27.178667-63.957333 16.384-14.549333 37.632-21.333333 58.197333-21.376 20.522667 0 41.813333 6.826667 58.197333 21.376 16.768 14.933333 27.136 36.821333 27.093334 63.957333v98.645333z" fill="#252525" p-id="2126"></path></svg>