<?xml version="1.0" standalone="no"?><!DOCTYPE svg PUBLIC "-//W3C//DTD SVG 1.1//EN" "http://www.w3.org/Graphics/SVG/1.1/DTD/svg11.dtd"><svg t="1782722053810" class="icon" viewBox="0 0 1024 1024" version="1.1" xmlns="http://www.w3.org/2000/svg" p-id="1428" xmlns:xlink="http://www.w3.org/1999/xlink" width="20" height="20"><path d="M280.874667 703.146667v-171.776h42.666666v171.776a21.333333 21.333333 0 0 1-42.666666 0z" fill="#C25010" p-id="1429"></path><path d="M483.797333 176.298667a87.808 87.808 0 0 1 61.909334 0l371.626666 158.933333c7.978667 3.413333 13.909333 8.789333 17.92 15.104a38.997333 38.997333 0 0 1-18.773333 15.573333l-373.632 149.290667c-18.218667 6.144-37.973333 6.144-56.234667 0l-373.589333-149.333333a39.04 39.04 0 0 1-18.816-15.530667 39.168 39.168 0 0 1 17.92-15.104l371.626667-158.933333z" fill="#1B7AFE" p-id="1430"></path><path d="M832.341333 504.448l-280.192 111.957333-0.554666 0.256-0.512 0.128a113.493333 113.493333 0 0 1-72.661334 0l-0.554666-0.128-0.554667-0.256-280.149333-111.957333v271.786667c0 30.805333 19.882667 58.069333 49.152 67.498666l246.826666 79.146667c14.08 4.522667 29.184 4.522667 43.221334 0l246.784-79.146667a70.826667 70.826667 0 0 0 49.194666-67.456v-271.829333z m-292.906666-288.597333a70.826667 70.826667 0 0 0-49.450667 0l-389.546667 166.613333a20.352 20.352 0 0 0 0.426667 37.589333l391.338667 156.373334a70.826667 70.826667 0 0 0 45.056 0l391.338666-156.373334a20.352 20.352 0 0 0 0.469334-37.546666l-389.632-166.656z m335.573333 560.426666a113.493333 113.493333 0 0 1-78.805333 108.074667l-246.826667 79.146667c-22.528 7.253333-46.72 7.253333-69.248 0l-246.826667-79.146667a113.493333 113.493333 0 0 1-78.805333-108.074667v-288.853333l-69.461333-27.733333C32.853333 438.869333 32 365.312 83.626667 343.210667l390.229333-166.826667 0.853333-0.384a113.493333 113.493333 0 0 1 80.042667 0l0.426667 0.170667 0.426666 0.170666 390.272 166.869334c51.626667 22.101333 50.730667 95.658667-1.450666 116.48l-69.418667 27.733333v288.853333z" fill="#252525" p-id="1431"></path><path d="M502.528 303.018667a10.24 10.24 0 0 1 18.944 0l16.64 41.002666a10.24 10.24 0 0 0 9.514667 6.4h48.128c10.453333 0 14.165333 13.824 5.12 19.072l-34.688 20.181334a10.24 10.24 0 0 0-4.352 12.714666l14.122666 34.730667a10.24 10.24 0 0 1-14.634666 12.714667l-44.16-25.685334a10.24 10.24 0 0 0-10.325334 0l-44.16 25.685334a10.24 10.24 0 0 1-14.634666-12.714667l14.08-34.730667a10.24 10.24 0 0 0-4.309334-12.714666l-34.688-20.181334c-9.045333-5.248-5.333333-19.072 5.12-19.072h48.128a10.24 10.24 0 0 0 9.472-6.4l16.64-41.002666z" fill="#FFFFFF" p-id="1432"></path></svg>