<?xml version="1.0" standalone="no"?><!DOCTYPE svg PUBLIC "-//W3C//DTD SVG 1.1//EN" "http://www.w3.org/Graphics/SVG/1.1/DTD/svg11.dtd"><svg t="1782722112621" class="icon" viewBox="0 0 1024 1024" version="1.1" xmlns="http://www.w3.org/2000/svg" p-id="1950" xmlns:xlink="http://www.w3.org/1999/xlink" width="20" height="20"><path d="M426.666667 725.333333h170.666666l42.666667 170.666667H384l42.666667-170.666667z" fill="#252525" p-id="1951"></path><path d="M128 640h768v85.333333a42.666667 42.666667 0 0 1-42.666667 42.666667H170.666667a42.666667 42.666667 0 0 1-42.666667-42.666667v-85.333333z" fill="#1B7AFE" p-id="1952"></path><path d="M874.666667 256A64 64 0 0 0 810.666667 192H213.333333A64 64 0 0 0 149.333333 256v426.666667A64 64 0 0 0 213.333333 746.666667h597.333334a64 64 0 0 0 64-64V256z m42.666666 426.666667a106.666667 106.666667 0 0 1-106.666666 106.666666H213.333333A106.666667 106.666667 0 0 1 106.666667 682.666667V256A106.666667 106.666667 0 0 1 213.333333 149.333333h597.333334A106.666667 106.666667 0 0 1 917.333333 256v426.666667z" fill="#252525" p-id="1953"></path><path d="M618.666667 432.384a42.666667 42.666667 0 0 1 0 73.898667l-128 73.898666a42.666667 42.666667 0 0 1-63.573334-30.933333l-0.426666-5.973333h42.666666L597.333333 469.333333l-128-73.898666h-42.666666a42.666667 42.666667 0 0 1 58.581333-39.594667l5.418667 2.645333 128 73.898667zM469.333333 543.232h-42.666666V395.434667h42.666666v147.797333zM725.333333 874.666667a21.333333 21.333333 0 0 1 0 42.666666H298.666667a21.333333 21.333333 0 0 1 0-42.666666h426.666666z" fill="#252525" p-id="1954"></path></svg>