<?xml version="1.0" standalone="no"?><!DOCTYPE svg PUBLIC "-//W3C//DTD SVG 1.1//EN" "http://www.w3.org/Graphics/SVG/1.1/DTD/svg11.dtd"><svg t="1782722176655" class="icon" viewBox="0 0 1024 1024" version="1.1" xmlns="http://www.w3.org/2000/svg" p-id="2639" xmlns:xlink="http://www.w3.org/1999/xlink" width="20" height="20"><path d="M880.341333 510.592a369.792 369.792 0 1 0-739.541333 0 369.792 369.792 0 0 0 739.541333 0z m42.666667 0a412.416 412.416 0 0 1-412.416 412.416c-227.797333 0-412.458667-184.618667-412.458667-412.416S282.794667 98.133333 510.592 98.133333c227.797333 0 412.416 184.661333 412.416 412.458667z" fill="#1B1F26" p-id="2640"></path><path d="M315.050667 467.925333a42.666667 42.666667 0 1 1 0 85.333334 42.666667 42.666667 0 1 1 0-85.333334z" fill="#2453DE" p-id="2641"></path><path d="M510.634667 467.925333a42.666667 42.666667 0 0 1 0 85.333334h-0.042667a42.666667 42.666667 0 1 1 0-85.333334z" fill="#C25010" p-id="2642"></path><path d="M706.176 467.925333a42.666667 42.666667 0 1 1 0 85.333334h-0.042667a42.666667 42.666667 0 0 1 0-85.333334h0.042667z" fill="#057C52" p-id="2643"></path></svg>