<?xml version="1.0" standalone="no"?><!DOCTYPE svg PUBLIC "-//W3C//DTD SVG 1.1//EN" "http://www.w3.org/Graphics/SVG/1.1/DTD/svg11.dtd"><svg t="1782722075919" class="icon" viewBox="0 0 1024 1024" version="1.1" xmlns="http://www.w3.org/2000/svg" p-id="1777" xmlns:xlink="http://www.w3.org/1999/xlink" width="20" height="20"><path d="M432.256 562.944a240.64 240.64 0 0 1-51.2-75.477333 19.84 19.84 0 0 0-33.28-5.12l-167.253333 195.754666a73.685333 73.685333 0 0 0 3.882666 99.968l32.725334 32.725334a73.685333 73.685333 0 0 0 100.010666 3.925333l195.712-167.253333a19.84 19.84 0 0 0-5.12-33.322667 240.170667 240.170667 0 0 1-75.477333-51.2z" fill="#1B7AFE" p-id="1778"></path><path d="M636.928 619.818667c-12.074667 0-24.149333-0.853333-36.138667-2.56a259.712 259.712 0 0 1-148.693333-74.154667 259.797333 259.797333 0 0 1-74.197333-148.693333 264.064 264.064 0 0 1 28.416-160.256 24.32 24.32 0 0 0 1.706666-18.346667c-10.112-34.645333-6.741333-60.629333 9.984-77.354667 16.682667-16.725333 42.709333-20.053333 77.312-9.984 6.4 1.877333 12.885333 1.28 18.346667-1.706666a264.106667 264.106667 0 0 1 160.298667-28.416 259.712 259.712 0 0 1 148.693333 74.24 259.797333 259.797333 0 0 1 74.197333 148.650666 264.064 264.064 0 0 1-28.416 160.256 24.32 24.32 0 0 0-1.706666 18.346667c10.112 34.645333 6.741333 60.672-9.984 77.354667-16.682667 16.725333-42.709333 20.053333-77.312 9.984a24.277333 24.277333 0 0 0-18.346667 1.706666 264.021333 264.021333 0 0 1-124.16 30.933334zM460.245333 164.48c-6.613333 0-10.794667 1.450667-12.8 3.413333-3.712 3.754667-5.546667 15.232 0.554667 36.224 4.949333 16.896 3.2 34.56-4.949333 49.706667a222.165333 222.165333 0 0 0-23.893334 134.826667 218.282667 218.282667 0 0 0 62.421334 125.013333 218.453333 218.453333 0 0 0 125.013333 62.378667 222.122667 222.122667 0 0 0 134.826667-23.893334 65.706667 65.706667 0 0 1 49.664-4.949333c20.992 6.101333 32.469333 4.266667 36.224 0.554667 3.754667-3.754667 5.546667-15.232-0.554667-36.224a65.706667 65.706667 0 0 1 4.949333-49.706667 222.165333 222.165333 0 0 0 23.893334-134.826667 218.325333 218.325333 0 0 0-62.378667-125.013333 218.453333 218.453333 0 0 0-125.013333-62.378667 222.122667 222.122667 0 0 0-134.826667 23.893334 65.706667 65.706667 0 0 1-49.706667 4.949333 85.930667 85.930667 0 0 0-23.466666-3.968zM237.653333 983.210667c-10.538667 0-21.333333-1.322667-32.341333-4.394667a108.288 108.288 0 0 1-46.762667-26.026667 95.786667 95.786667 0 0 1-26.922666-59.392 93.269333 93.269333 0 0 1 21.76-67.498666 20.821333 20.821333 0 1 1 31.957333 26.752 52.821333 52.821333 0 0 0 2.816 70.741333l0.256 0.298667c1.024 0.981333 11.733333 10.922667 29.994667 15.488 25.813333 6.442667 54.528-0.256 85.333333-19.882667l245.717333-156.586667 0.512-0.298666c43.306667-25.856 109.397333-40.533333 153.088 3.2 27.776 27.733333 38.869333 68.608 28.970667 106.666666a20.821333 20.821333 0 0 1-40.32-10.496 69.802667 69.802667 0 0 0-18.090667-66.730666c-26.709333-26.709333-71.594667-15.104-102.016 2.986666L326.144 954.453333c-22.186667 14.122667-53.546667 28.757333-88.448 28.757334z" fill="#252525" p-id="1779"></path><path d="M721.578667 502.784a20.906667 20.906667 0 0 1-8.533334-1.834667c-37.546667-16.853333-83.328-50.773333-125.653333-93.141333-42.325333-42.325333-76.245333-88.106667-93.098667-125.610667a20.821333 20.821333 0 0 1 37.973334-17.066666c14.933333 33.066667 45.738667 74.325333 84.608 113.194666 38.869333 38.912 80.170667 69.717333 113.237333 84.608a20.821333 20.821333 0 0 1-8.533333 39.850667z" fill="#252525" p-id="1780"></path></svg>