<?xml version="1.0" standalone="no"?><!DOCTYPE svg PUBLIC "-//W3C//DTD SVG 1.1//EN" "http://www.w3.org/Graphics/SVG/1.1/DTD/svg11.dtd"><svg t="1782722186380" class="icon" viewBox="0 0 1024 1024" version="1.1" xmlns="http://www.w3.org/2000/svg" p-id="2813" xmlns:xlink="http://www.w3.org/1999/xlink" width="20" height="20"><path d="M938.666667 512c0-235.648-191.018667-426.666667-426.666667-426.666667S85.333333 276.352 85.333333 512s191.018667 426.666667 426.666667 426.666667v42.666666C252.8 981.333333 42.666667 771.2 42.666667 512S252.8 42.666667 512 42.666667s469.333333 210.133333 469.333333 469.333333-210.133333 469.333333-469.333333 469.333333v-42.666666c235.648 0 426.666667-191.018667 426.666667-426.666667z" fill="#252525" p-id="2814"></path><path d="M768 704c0 82.474667-114.602667 149.333333-256 149.333333s-256-66.858667-256-149.333333S370.602667 554.666667 512 554.666667s256 66.858667 256 149.333333z" fill="#1B7AFE" p-id="2815"></path><path d="M480 725.333333V341.333333a32 32 0 0 1 64 0v384a32 32 0 0 1-64 0zM288 682.666667v-213.333334a32 32 0 0 1 64 0v213.333334a32 32 0 0 1-64 0zM672 682.666667v-128a32 32 0 0 1 64 0v128a32 32 0 0 1-64 0z" fill="#252525" p-id="2816"></path></svg>