<?xml version="1.0" standalone="no"?><!DOCTYPE svg PUBLIC "-//W3C//DTD SVG 1.1//EN" "http://www.w3.org/Graphics/SVG/1.1/DTD/svg11.dtd"><svg t="1782722038477" class="icon" viewBox="0 0 1024 1024" version="1.1" xmlns="http://www.w3.org/2000/svg" p-id="1254" xmlns:xlink="http://www.w3.org/1999/xlink" width="20" height="20"><path d="M853.333333 362.666667a21.333333 21.333333 0 0 0-21.333333-21.333334h-640a21.333333 21.333333 0 0 0-21.333333 21.333334v469.333333a21.333333 21.333333 0 0 0 21.333333 21.333333h640a21.333333 21.333333 0 0 0 21.333333-21.333333v-469.333333zM450.858667 298.666667h137.642666l-75.093333-75.093334L450.858667 298.666667zM896 832a64 64 0 0 1-64 64h-640A64 64 0 0 1 128 832v-469.333333A64 64 0 0 1 192 298.666667h203.349333l115.2-138.24L648.874667 298.666667H832A64 64 0 0 1 896 362.666667v469.333333z" fill="#252525" p-id="1255"></path><path d="M234.666667 448a42.666667 42.666667 0 0 1 42.666666-42.666667h469.333334a42.666667 42.666667 0 0 1 42.666666 42.666667v298.666667a42.666667 42.666667 0 0 1-42.666666 42.666666h-469.333334a42.666667 42.666667 0 0 1-42.666666-42.666666v-298.666667z" fill="#1B7AFE" p-id="1256"></path><path d="M311.808 638.293333a6.528 6.528 0 0 1-6.314667 5.376 5.973333 5.973333 0 0 1-5.973333-6.784c3.669333-26.282667 11.818667-50.773333 21.973333-70.997333 13.013333-26.069333 41.514667-57.472 63.274667-57.472 31.488 0 38.784 17.322667 38.784 47.104 0 20.053333-18.218667 99.370667-4.693333 103.68 19.882667 6.442667 90.794667-129.621333 117.845333-113.28 29.696 9.6 6.997333 126.293333 29.696 126.293333 21.888 0 85.973333-96.426667 121.088-173.056a14.421333 14.421333 0 0 1 13.098667-8.490666c10.965333 0 18.048 12.032 12.885333 21.717333-33.962667 63.872-107.221333 205.738667-160.682667 190.464-52.352-14.933333 2.261333-173.269333-54.485333-95.488-16.554667 22.698667-49.109333 78.506667-79.189333 75.946667-40.96-3.456-22.698667-60.842667-20.266667-88.746667 2.432-27.946667 13.354667-73.813333-14.08-68.181333-41.728 8.533333-67.626667 82.773333-72.96 111.872z" fill="#FFFFFF" p-id="1257"></path><path d="M576 170.666667a64 64 0 1 1-128 0 64 64 0 0 1 128 0z" fill="#C25010" p-id="1258"></path></svg>